<svg width="133" height="81" viewBox="0 0 133 81" fill="none" xmlns="http://www.w3.org/2000/svg">
<path d="M16.478 0.980273L130.516 11.6549C132.907 12.0452 132.681 13.442 132.46 15.4023C131.442 24.4662 129.774 33.7419 128.487 42.8219C127.155 52.2242 126.122 61.8885 124.543 71.2116C123.722 76.0614 120.789 78.8733 115.747 79.0382L12.4798 69.3409C9.86487 68.9223 7.36424 67.1037 6.40406 64.6329C6.28363 64.3219 6.05535 63.1479 5.97157 63.0474C5.88778 62.947 4.32051 62.3173 3.95734 62.0834C1.87083 60.7398 0.689309 58.275 1.19595 55.8055L14.2371 2.27327C14.6792 1.48388 15.5717 0.992629 16.478 0.980273ZM126.92 24.2681L128.997 15.813C129.018 14.9377 128.397 14.4409 127.593 14.2508C91.0554 10.8953 54.5165 7.23993 17.9787 4.06957C17.3432 4.17558 16.7816 4.64429 16.4749 5.19299L14.4489 13.7065L126.92 24.2681ZM124.664 33.5009L12.247 22.9443L12.0664 23.1954L4.37263 55.0488C3.82294 57.7676 5.22723 60.1851 8.06095 60.651L110.798 70.2985C113.418 70.318 115.82 68.5942 116.736 66.1826L124.664 33.5009ZM9.55786 63.545C10.1257 65.3089 11.9014 66.3577 13.6997 66.5899L115.165 76.118C118.333 76.3936 120.876 74.2396 121.533 71.2335L125.681 41.9785L119.748 66.2876C118.798 70.8159 114.089 73.2587 109.69 72.9528L9.553 63.5446L9.55786 63.545Z" fill="#CBD0D7"/>
<path d="M81.945 61.2175L85.6221 45.4394C86.1678 45.5588 89.1795 45.6175 89.3673 45.8909L92.174 55.8135L94.5127 46.2693L97.9024 46.5877L94.0672 62.351L90.6978 62.0248L87.6371 51.7763L85.1742 61.5207L81.945 61.2175Z" fill="#CBD0D7"/>
<path d="M51.1787 58.3276L55.1658 42.5664L62.6594 43.3042C66.8004 44.4508 65.5264 49.5286 62.1528 50.7104C65.5916 52.8827 63.6633 57.7699 60.1867 58.769C59.9269 58.8445 58.9575 59.0581 58.7533 59.0389L51.1811 58.3278L51.1787 58.3276ZM56.7588 48.9831L59.988 49.2863C60.5691 49.3409 61.7121 48.3761 61.8649 47.7935C62.5084 45.3295 59.1835 45.4973 57.6431 45.3648L56.7588 48.9831ZM55.0367 55.9316L59.0076 56.3045C59.151 56.3179 59.846 55.7351 59.966 55.5806C60.6635 54.6836 61.1297 52.3054 59.6322 52.0039C58.5391 51.7843 57.2014 51.8707 56.0809 51.6826L55.0369 55.9292L55.0367 55.9316Z" fill="#CBD0D7"/>
<path d="M104.998 47.2516L103.608 52.9594L109.817 47.7042L113.895 48.0871L107.055 53.7631L110.592 63.9077L106.833 63.5547L104.39 56.0031L102.578 57.3997L101.167 63.0226L97.8842 62.7144L101.611 46.9335L104.998 47.2516Z" fill="#CBD0D7"/>
<path d="M78.7157 60.9138L75.168 60.5806C75.1096 60.5751 75.0216 60.389 75.0346 60.3025L75.0998 57.3359L75.0205 57.1091C74.8682 56.9803 71.4531 56.6718 71.0422 56.6844C70.9241 56.6879 70.807 56.655 70.7205 56.7663L69.0815 60.0091L65.3757 59.6611L74.1291 44.345L77.8371 44.8004L78.7208 60.9118L78.7157 60.9138ZM74.9358 54.511L74.7416 49.1857L72.1831 54.2525L74.9358 54.511Z" fill="#CBD0D7"/>
</svg>
