<svg width="146" height="136" viewBox="0 0 146 136" fill="none" xmlns="http://www.w3.org/2000/svg">
<line x1="6.5" y1="63.5" x2="6.5" y2="73.5" stroke="#FCCC10" stroke-width="3" stroke-linecap="round"/>
<line x1="11.5" y1="68.5" x2="1.5" y2="68.5" stroke="#FCCC10" stroke-width="3" stroke-linecap="round"/>
<line x1="18.5" y1="43.5" x2="18.5" y2="51.5" stroke="#CBD0D7" stroke-width="3" stroke-linecap="round"/>
<line x1="22.5" y1="47.7305" x2="14.5" y2="47.7305" stroke="#CBD0D7" stroke-width="3" stroke-linecap="round"/>
<circle cx="121" cy="55" r="3" fill="#D9D9D9"/>
<path d="M129.375 73.5C134.337 73.5 136.5 71.4124 136.5 66.375C136.5 71.4124 138.648 73.5 143.625 73.5C138.648 73.5 136.5 75.6478 136.5 80.625C136.5 75.6478 134.337 73.5 129.375 73.5Z" fill="#FCCC10" stroke="#FCCC10" stroke-width="1.5" stroke-linejoin="round"/>
<path d="M101.096 0H49.9044C45.5372 0.00495504 42.0049 3.55301 42 7.92857V103.071C42.0049 107.447 45.5372 110.995 49.9044 111H101.096C105.463 110.995 108.995 107.447 109 103.071V7.92857C108.995 3.55301 105.463 0.00494743 101.096 0ZM86.8033 3.96429L85.8152 7.92857H65.1854L64.1974 3.96429H86.8033ZM105.053 103.071H105.048C105.048 105.262 103.279 107.031 101.096 107.036H49.9045C47.7209 107.031 45.9523 105.262 45.9523 103.071V7.92857C45.9523 5.73826 47.7209 3.96923 49.9045 3.96429H60.1258L61.7264 10.3914C61.9487 11.2734 62.7391 11.8929 63.6432 11.8929H87.3563C88.2604 11.8929 89.0507 11.2734 89.2731 10.3914L90.8737 3.96429H101.095C103.279 3.96924 105.047 5.73826 105.047 7.92857L105.053 103.071Z" fill="#CBD0D7"/>
<path d="M83.1 99H67.9C66.8503 99 66 99.895 66 101C66 102.105 66.8503 103 67.9 103H83.1C84.1497 103 85 102.105 85 101C85 99.895 84.1497 99 83.1 99Z" fill="#CBD0D7"/>
<path d="M56.0762 52.4932L63.8976 55.0991L66.5073 62.9205V62.9245C66.6808 63.4409 67.1065 63.8312 67.6387 63.9573C68.1709 64.0835 68.7307 63.9258 69.117 63.5394L71.9751 60.6853L71.9712 60.6813C72.3102 60.3462 72.4797 59.8692 72.4245 59.3922L71.7977 53.7509L81.0383 45.1212L89.9754 59.9083V59.9123C90.2277 60.3223 90.6535 60.5982 91.1344 60.6574C91.6153 60.7126 92.0963 60.5509 92.4393 60.2119L95.5379 57.1133C95.9676 56.6796 96.1134 56.037 95.9084 55.4654L89.3643 37.2792L94.1068 32.8323H94.1107C95.1673 31.7758 95.7586 30.3448 95.7546 28.8506C95.7507 27.3565 95.1515 25.9255 94.091 24.8729C93.0306 23.8203 91.5956 23.2368 90.1015 23.2447C88.6074 23.2565 87.1764 23.8597 86.1317 24.9281L81.7203 29.6352L63.5383 23.0949C62.9628 22.886 62.3202 23.0279 61.8865 23.4616L58.788 26.5602C58.4489 26.9071 58.2873 27.3841 58.3464 27.8651C58.4016 28.3461 58.6776 28.7719 59.0876 29.0281L73.8786 37.9613L65.249 47.202L59.6117 46.5751H59.6077C59.1307 46.52 58.6537 46.6855 58.3186 47.0285L55.4606 49.8827C55.0742 50.269 54.9165 50.8288 55.0427 51.361C55.1649 51.8932 55.5591 52.3229 56.0755 52.4925L56.0762 52.4932ZM60.0105 49.7927L65.6834 50.4235H65.6873C66.1801 50.4826 66.6729 50.3013 67.0119 49.9307L77.5098 38.691C77.8291 38.3441 77.9789 37.871 77.9119 37.4019C77.8488 36.9288 77.5768 36.5149 77.1707 36.2665L62.4423 27.3688L63.4121 26.399L81.6253 32.9511C82.2167 33.1679 82.8829 33.0102 83.3126 32.549L88.3982 27.1205H88.3942C89.1078 26.4345 90.1564 26.2334 91.071 26.6119C91.9855 26.9904 92.5848 27.8734 92.6005 28.863C92.6045 29.4977 92.36 30.1127 91.9146 30.57L86.4545 35.687C85.9933 36.1168 85.8356 36.779 86.0445 37.3744L92.6005 55.5919L91.6307 56.5617L82.7331 41.8331V41.8291C82.4886 41.4231 82.0708 41.1471 81.6016 41.0801C81.1286 41.017 80.6555 41.1668 80.3086 41.4901L69.065 51.988C68.7023 52.3271 68.5209 52.8199 68.5761 53.3126L69.2069 58.9856L68.6905 59.502L66.6405 53.352V53.356C66.4829 52.8829 66.1123 52.5163 65.6432 52.3586L59.4973 50.3086L60.0105 49.7927Z" fill="#CBD0D7"/>
<path d="M51.9286 81H75.0714C76.137 81 77 80.105 77 79C77 77.895 76.137 77 75.0714 77H51.9286C50.863 77 50 77.895 50 79C50 80.105 50.863 81 51.9286 81Z" fill="#CBD0D7"/>
<path d="M99.0385 85H51.9615C50.8778 85 50 85.895 50 87C50 88.105 50.8778 89 51.9615 89H99.0385C100.122 89 101 88.105 101 87C101 85.895 100.122 85 99.0385 85Z" fill="#CBD0D7"/>
<circle cx="40.5" cy="108.5" r="27.5" fill="#236FFF"/>
<path d="M36.716 116.185H43.3642C43.7517 116.185 44.0765 116.052 44.3387 115.788C44.6008 115.523 44.7318 115.195 44.7318 114.803V109.803C44.7318 109.412 44.6008 109.084 44.3387 108.819C44.0765 108.555 43.7512 108.423 43.3625 108.423H43.0693V106.712C43.0693 105.858 42.7812 105.14 42.2051 104.557C41.6289 103.976 40.9177 103.685 40.0715 103.685C39.2252 103.685 38.514 103.976 37.9379 104.557C37.3617 105.139 37.0736 105.857 37.0736 106.712V108.423H36.7143C36.3268 108.423 36.002 108.555 35.7399 108.819C35.4778 109.084 35.3467 109.412 35.3467 109.803V114.803C35.3467 115.195 35.4778 115.523 35.7399 115.788C36.002 116.052 36.3273 116.185 36.716 116.185ZM38.3768 108.423V106.712C38.3768 106.228 38.5395 105.821 38.8648 105.493C39.1902 105.164 39.5924 105 40.0715 105C40.5505 105 40.9533 105.164 41.2798 105.493C41.6063 105.821 41.7684 106.228 41.7661 106.712V108.423H38.3768ZM40.0393 125.058C39.8856 125.058 39.7235 125.044 39.5529 125.016C39.3823 124.987 39.2241 124.944 39.0784 124.887C35.7421 123.605 33.0911 121.429 31.1253 118.36C29.1594 115.292 28.1765 111.97 28.1765 108.395V101.069C28.1765 100.483 28.342 99.9554 28.6731 99.4856C29.003 99.0158 29.4306 98.6754 29.9559 98.4645L39.0818 95.0436C39.4117 94.9227 39.7308 94.8623 40.0393 94.8623C40.3477 94.8623 40.6674 94.9227 40.9984 95.0436L50.1226 98.4645C50.6468 98.6766 51.0744 99.017 51.4055 99.4856C51.7365 99.9554 51.902 100.483 51.902 101.069V108.395C51.902 111.97 50.9191 115.292 48.9533 118.36C46.9874 121.429 44.337 123.605 41.0018 124.887C40.8538 124.944 40.6951 124.987 40.5256 125.016C40.3562 125.044 40.194 125.058 40.0393 125.058ZM40.0393 123.447C42.9767 122.506 45.4057 120.625 47.3264 117.803C49.247 114.98 50.2073 111.845 50.2073 108.395V101.037C50.2073 100.818 50.1474 100.621 50.0277 100.445C49.9091 100.27 49.7407 100.138 49.5227 100.052L40.3985 96.6309C40.2901 96.5853 40.1703 96.5625 40.0393 96.5625C39.9082 96.5625 39.7884 96.5853 39.68 96.6309L30.5558 100.052C30.3378 100.138 30.1695 100.27 30.0508 100.445C29.9311 100.621 29.8712 100.818 29.8712 101.037V108.395C29.8712 111.845 30.8315 114.98 32.7521 117.803C34.6728 120.625 37.1018 122.506 40.0393 123.447Z" fill="white"/>
</svg>
