<svg width="257" height="251" viewBox="0 0 257 251" fill="none" xmlns="http://www.w3.org/2000/svg">
<path d="M11.002 6.28711C11.1879 6.64904 11.7055 6.64889 11.8916 6.28711L15.1182 0H15.4072L18.6328 6.28711C18.8188 6.64923 19.3375 6.64922 19.5234 6.28711L22.749 0H23.0381L26.2637 6.28711C26.4496 6.64923 26.9683 6.64922 27.1543 6.28711L30.3799 0H30.6689L33.8955 6.28711C34.0816 6.6489 34.5992 6.64902 34.7852 6.28711L38.0107 0H38.3008L41.5264 6.28711C41.7124 6.64897 42.23 6.64896 42.416 6.28711L45.6416 0H45.9316L49.1572 6.28711C49.3432 6.64904 49.8608 6.64889 50.0469 6.28711L53.2734 0H53.5625L56.7881 6.28711C56.974 6.64904 57.4917 6.64889 57.6777 6.28711L60.9043 0H61.1934L64.4199 6.28711C64.606 6.6489 65.1236 6.64902 65.3096 6.28711L68.5352 0H68.8252L72.0508 6.28711C72.2368 6.64897 72.7544 6.64896 72.9404 6.28711L76.166 0H76.4561L79.6816 6.28711C79.8676 6.64897 80.3853 6.64896 80.5713 6.28711L83.7969 0H84.0869L87.3125 6.28711C87.4984 6.64904 88.0161 6.64889 88.2021 6.28711L91.4287 0H91.7178L94.9434 6.28711C95.1293 6.64923 95.648 6.64922 95.834 6.28711L99.0596 0H99.3486L102.575 6.28711C102.761 6.6489 103.279 6.64902 103.465 6.28711L106.69 0H106.979L110.206 6.28711C110.392 6.6489 110.91 6.64902 111.096 6.28711L114.321 0H114.611L117.837 6.28711C118.023 6.64904 118.54 6.64889 118.727 6.28711L121.953 0H122.242L125.468 6.28711C125.654 6.64923 126.172 6.64922 126.358 6.28711L129.584 0H129.873L133.1 6.28711C133.286 6.6489 133.803 6.64902 133.989 6.28711L137.215 0H137.504L140.73 6.28711C140.917 6.6489 141.434 6.64902 141.62 6.28711L144.846 0H145.136L148.361 6.28711C148.547 6.64897 149.065 6.64896 149.251 6.28711L152.477 0H152.767L155.992 6.28711C156.178 6.64904 156.696 6.64889 156.882 6.28711L160.108 0H160.397L163.623 6.28711C163.809 6.64904 164.327 6.64889 164.513 6.28711L167.739 0H168.028L171.254 6.28711C171.44 6.64923 171.959 6.64922 172.145 6.28711L175.37 0H175.66L178.886 6.28711C179.072 6.64897 179.589 6.64896 179.775 6.28711L183.001 0H183.291L186.517 6.28711C186.703 6.64904 187.22 6.64889 187.406 6.28711L190.633 0H190.922L194.147 6.28711C194.333 6.64904 194.851 6.64889 195.037 6.28711L198.264 0H198.553L201.778 6.28711C201.964 6.64923 202.483 6.64922 202.669 6.28711L205.895 0H206.184L209.41 6.28711C209.596 6.6489 210.114 6.64902 210.3 6.28711L213.525 0H213.814L217.041 6.28711C217.227 6.6489 217.745 6.64902 217.931 6.28711L221.156 0H221.446L224.672 6.28711C224.858 6.64897 225.376 6.64896 225.562 6.28711L228.787 0H229.077L232.303 6.28711C232.489 6.64923 233.007 6.64922 233.193 6.28711L236.419 0H236.708L239.935 6.28711C240.121 6.6489 240.638 6.64902 240.824 6.28711L244.05 0H244.339L247.565 6.28711C247.751 6.6489 248.269 6.64902 248.455 6.28711L251.681 0H251.971L255.196 6.28711C255.382 6.64897 255.9 6.64896 256.086 6.28711L256.913 4.67383V245.767L256.086 244.155C255.9 243.793 255.382 243.793 255.196 244.155L251.969 250.446H251.683L248.455 244.155C248.269 243.793 247.751 243.793 247.565 244.155L244.337 250.446H244.052L240.824 244.155C240.638 243.793 240.12 243.793 239.934 244.155L236.706 250.446H236.421L233.193 244.155C233.007 243.793 232.489 243.793 232.303 244.155L229.075 250.446H228.79L225.562 244.155C225.375 243.793 224.858 243.793 224.672 244.155L221.444 250.446H221.158L217.931 244.155C217.745 243.793 217.227 243.793 217.041 244.155L213.813 250.446H213.527L210.3 244.155C210.114 243.793 209.596 243.793 209.41 244.155L206.182 250.446H205.896L202.669 244.155C202.483 243.793 201.965 243.793 201.779 244.155L198.551 250.446H198.266L195.037 244.155C194.851 243.793 194.333 243.793 194.147 244.155L190.92 250.446H190.634L187.406 244.155C187.22 243.793 186.703 243.793 186.517 244.155L183.289 250.446H183.003L179.775 244.155C179.589 243.793 179.072 243.793 178.886 244.155L175.658 250.446H175.372L172.145 244.155C171.959 243.793 171.441 243.793 171.255 244.155L168.026 250.446H167.741L164.514 244.155C164.328 243.793 163.809 243.793 163.623 244.155L160.396 250.446H160.11L156.882 244.155C156.696 243.793 156.178 243.793 155.992 244.155L152.765 250.446H152.479L149.251 244.155C149.065 243.793 148.547 243.793 148.361 244.155L145.134 250.446H144.848L141.62 244.155C141.434 243.793 140.917 243.793 140.73 244.155L137.502 250.446H137.217L133.989 244.155C133.803 243.793 133.285 243.793 133.099 244.155L129.871 250.446H129.586L126.357 244.155C126.171 243.793 125.654 243.793 125.468 244.155L122.24 250.446H121.955L118.727 244.155C118.541 243.793 118.023 243.793 117.837 244.155L114.609 250.446H114.323L111.096 244.155C110.91 243.793 110.392 243.793 110.206 244.155L106.979 250.446H106.692L103.465 244.155C103.279 243.793 102.761 243.793 102.575 244.155L99.3467 250.446H99.0615L95.834 244.155C95.6481 243.793 95.1304 243.793 94.9443 244.155L91.7158 250.446H91.4307L88.2031 244.155C88.0172 243.793 87.4984 243.793 87.3125 244.155L84.085 250.446H83.7988L80.5713 244.155C80.3853 243.793 79.8676 243.793 79.6816 244.155L76.4541 250.446H76.168L72.9404 244.155C72.7545 243.793 72.2368 243.793 72.0508 244.155L68.8223 250.446H68.5371L65.3096 244.155C65.1237 243.793 64.606 243.793 64.4199 244.155L61.1914 250.446H60.9062L57.6787 244.155C57.4928 243.793 56.974 243.793 56.7881 244.155L53.5605 250.446H53.2754L50.0469 244.155C49.8608 243.793 49.3432 243.793 49.1572 244.155L45.9297 250.446H45.6445L42.416 244.155C42.23 243.793 41.7123 243.793 41.5264 244.155L38.2988 250.446H38.0127L34.7852 244.155C34.5992 243.793 34.0815 243.793 33.8955 244.155L30.668 250.446H30.3818L27.1543 244.155C26.9684 243.793 26.4496 243.793 26.2637 244.155L23.0361 250.446H22.751L19.5225 244.155C19.3364 243.793 18.8187 243.793 18.6328 244.155L15.4053 250.446H15.1201L11.8916 244.155C11.7056 243.793 11.1879 243.793 11.002 244.155L7.77441 250.446H7.48828L4.26074 244.155C4.07477 243.793 3.55708 243.793 3.37109 244.155L0.143555 250.446H0V0H0.145508L3.37109 6.28711C3.55709 6.64897 4.07473 6.64896 4.26074 6.28711L7.48633 0H7.77637L11.002 6.28711Z" fill="white"/>
</svg>
