<svg width="157" height="86" viewBox="0 0 157 86" fill="none" xmlns="http://www.w3.org/2000/svg">
<path d="M106.94 16.4511C107.689 15.7025 108.282 14.8136 108.688 13.8355C109.093 12.8573 109.301 11.8088 109.301 10.75C109.301 9.69126 109.093 8.64284 108.688 7.66465C108.282 6.68645 107.689 5.79764 106.94 5.04897C106.191 4.30029 105.302 3.70641 104.324 3.30123C103.346 2.89604 102.298 2.6875 101.239 2.6875C100.18 2.6875 99.1316 2.89604 98.1534 3.30123C97.1752 3.70641 96.2864 4.30029 95.5377 5.04897L55.1678 45.4188L66.57 56.821L106.94 16.4511Z" stroke="#5D687A" stroke-width="3" stroke-linecap="round" stroke-linejoin="round"/>
<path d="M55.1678 45.4187L50.1763 61.8124L66.57 56.8208M91.5064 9.08008L102.909 20.4822M39.4263 67.1874H36.7495C34.6112 67.1874 32.5605 68.0368 31.0485 69.5489C29.5365 71.0609 28.687 73.1116 28.687 75.2499C28.687 77.3882 29.5365 79.4389 31.0485 80.951C32.5605 82.463 34.6112 83.3124 36.7495 83.3124H93.187" stroke="#5D687A" stroke-width="3" stroke-linecap="round" stroke-linejoin="round"/>
<line x1="7.47552" y1="40.4023" x2="7.47552" y2="52.9389" stroke="#236FFF" stroke-width="3" stroke-linecap="round"/>
<line x1="14.0365" y1="46.3789" x2="1.49991" y2="46.3789" stroke="#236FFF" stroke-width="3" stroke-linecap="round"/>
<line x1="21.8167" y1="16.5" x2="21.8167" y2="26.6463" stroke="#CBD0D7" stroke-width="3" stroke-linecap="round"/>
<line x1="27.1825" y1="21.5566" x2="17.0362" y2="21.5566" stroke="#CBD0D7" stroke-width="3" stroke-linecap="round"/>
<circle cx="127.5" cy="32.5" r="3.5" fill="#D9D9D9"/>
<path d="M137.75 54.5C143.495 54.5 146 51.9729 146 45.875C146 51.9729 148.486 54.5 154.25 54.5C148.486 54.5 146 57.1 146 63.125C146 57.1 143.495 54.5 137.75 54.5Z" fill="#236FFF" stroke="#236FFF" stroke-width="1.5" stroke-linejoin="round"/>
</svg>
